<?xml version="1.0" encoding="utf-8"?>
<!-- Generator: Adobe Illustrator 24.1.3, SVG Export Plug-In . SVG Version: 6.00 Build 0)  -->
<svg version="1.1" id="Capa_1" xmlns="http://www.w3.org/2000/svg" xmlns:xlink="http://www.w3.org/1999/xlink" x="0px" y="0px"
	 viewBox="0 0 612 792" style="enable-background:new 0 0 612 792;" xml:space="preserve">
<style type="text/css">
	.st0{fill:#E8E6E4;}
	.st1{fill:#182C3F;}
	.st2{fill:#9A232C;}
	.st3{fill:#D3A00E;}
	.st4{fill:#ECEAE8;}
	.st5{fill:#E1DFDE;}
	.st6{font-family:'TwCenMT-CondensedExtraBold';}
	.st7{font-size:30.9874px;}
	.st8{font-family:'Microsoft-Yi-Baiti';}
	.st9{font-size:22.0413px;}
</style>
<path class="st0" d="M393.07,85.51c0.08,1.07-0.47,2.95-3.27,2.43c-2.15-0.4-4.82-0.46-4.78-3.84c0.04-3.65,2.87-3.65,5.21-3.9
	C393.31,79.87,392.92,82.34,393.07,85.51z"/>
<path class="st0" d="M380.24,73.13c2.23-0.07,2.75,1.27,2.73,3.19c-0.02,2.22-1.29,2.76-3.22,2.74c-2.22-0.03-2.76-1.28-2.73-3.22
	C377.06,73.64,378.3,73,380.24,73.13z"/>
<g>
	<path class="st1" d="M219.36,384.44c0.61-0.7,1.22-1.39,1.84-2.09c2.98-2.87,6.31-5.28,9.84-7.43c4.65-2.83,9.47-5.3,14.63-7.08
		c0.22-0.08,0.44-0.2,0.6,0.07c0.14,0.24-0.12,0.32-0.24,0.43c-0.46,0.45-0.93,0.89-1.4,1.33c-0.25,0.06-0.49,0.04-0.76,0.17
		c-1.03,0.5-1.61,1.51-2.59,2.08c-1.07,0.62-1.96,1.53-3.02,2.16c-1.98,1.2-3.5,2.93-5.23,4.4c-0.38,0.32-0.64,0.81-1,1.18
		c-0.96,0.98-1.85,2.01-2.76,3.03c-0.75,0.84-0.8,1.94-1.39,2.83c-0.63,0.97-1.07,2.06-1.61,3.1c-0.46,0.89-0.59,1.86-0.85,2.78
		c-0.31,1.1-0.66,2.18-0.97,3.28c-0.24,0.86-0.79,1.61-1.25,2.39c-0.41,0.7-0.95,1.31-1.57,1.77c-0.48,0.36-0.81,0.82-1.24,1.2
		c-0.2,0.18-0.62,0.24-0.48,0.67c-2.06,0.93-6.45,1.68-8.63,1.46c0.1-0.26,0.35-0.28,0.53-0.37c2.78-1.31,4.64-3.34,5.22-6.45
		c0.37-1.99,0.66-3.99,0.71-6.01C217.76,387.54,218.24,385.89,219.36,384.44z"/>
	<path class="st2" d="M219.88,400.72c-0.14-0.44,0.28-0.49,0.48-0.67c0.42-0.39,0.76-0.85,1.24-1.2c0.62-0.46,1.16-1.08,1.57-1.77
		c0.46-0.78,1.01-1.53,1.25-2.39c0.31-1.1,0.66-2.19,0.97-3.28c0.26-0.92,0.39-1.89,0.85-2.78c0.53-1.03,0.98-2.13,1.61-3.1
		c0.59-0.89,0.64-1.99,1.39-2.83c0.91-1.02,1.8-2.06,2.76-3.03c0.37-0.37,0.62-0.85,1-1.18c1.74-1.48,3.25-3.21,5.23-4.4
		c1.06-0.64,1.95-1.54,3.02-2.16c0.98-0.57,1.56-1.58,2.59-2.08c0.27-0.13,0.51-0.11,0.76-0.17c-2.32,3.05-3.67,6.54-4.72,10.18
		c-0.84,2.91-1.94,5.72-3.51,8.32c-2,3.31-4.6,6.06-7.77,8.28c-2.54,1.77-5.23,3.22-8.18,4.16
		C220.25,400.66,220.07,400.69,219.88,400.72z"/>
	<path class="st2" d="M217.75,372.17c-0.4-1.55-0.87-3.08-1.05-4.68c-0.33-2.94-0.01-5.81,0.96-8.61c0.53-1.53,1.16-3.04,1.38-4.66
		c0.11-0.82,0.15-1.65,0.23-2.47l-0.01,0c1.63,1.21,3.05,2.65,4.27,4.27c0.86,1.4,1.71,2.81,2.25,4.37
		c1.36,3.93,1.56,7.87,0.09,11.81c-1.19,3.18-3.33,5.45-6.6,6.53c-1.07,0.36-1.08,0.33-0.92-0.73
		C218.65,376.01,218.45,374.06,217.75,372.17z"/>
	<path class="st1" d="M210.69,399.7c0-0.08-0.01-0.16-0.01-0.25c-0.02-0.08-0.03-0.17-0.05-0.25c0-0.08-0.01-0.17-0.01-0.25
		c0.1-0.14,0.06-0.3,0.06-0.46c0.01-0.23,0.06-0.46,0.03-0.68c-0.49-3.26-0.58-6.55-0.62-9.84c-0.01-1.23-0.11-2.45-0.56-3.62
		c-1.31-3.36-3.21-6.37-5.38-9.23c-2.34-3.06-4.96-5.87-7.69-8.58c0.37-0.1,0.56,0.2,0.8,0.37c0.45,0.32,0.89,0.67,1.33,1
		c0.48,0.39,0.97,0.78,1.45,1.17c0,0,0.01,0.01,0.01,0.01c0.1,0.07,0.19,0.15,0.29,0.22c1.39,1.09,2.78,2.19,4.17,3.28
		c2.74,2.15,5.41,4.38,8.04,6.66c0.08,0.07,0.17,0.12,0.25,0.18c0.58,0.57,1.13,1.16,1.73,1.71c1.33,1.21,1.81,2.69,1.58,4.46
		c-0.47,3.62-0.99,7.23-1.9,10.76c-0.43,1.68-1.2,3.24-2.35,4.58c-0.55,0.64-1.19,1.15-2.01,1.4c-0.07-0.02-0.14-0.05-0.22-0.07
		c0.07-0.07,0.14-0.14,0.22-0.21c0.3-0.25,0.44-0.59,0.52-0.97c0,0,0,0,0,0C210.61,400.66,210.69,400.19,210.69,399.7z"/>
	<path class="st2" d="M216.14,378.5c-4.91-2.85-6.53-7.38-6.41-12.74c0.09-4.09,1.5-7.7,4.19-10.79c1.27-1.46,2.83-2.53,4.72-3.32
		c-0.22,0.84-0.58,1.49-0.93,2.14c-0.81,1.48-1.69,2.92-2.48,4.41c-1.31,2.44-1.99,5.04-1.71,7.82c0.13,1.33,0.56,2.62,1.08,3.85
		c0.36,0.86,0.79,1.7,1.18,2.55c0.69,1.66,1.32,3.33,1.52,5.13c0.02,0.21,0.06,0.41,0.07,0.62c0.05,0.87-0.03,0.92-0.87,0.56
		c-0.07-0.03-0.16-0.05-0.23-0.07c0,0,0,0,0,0C216.24,378.59,216.24,378.51,216.14,378.5z"/>
	<path class="st0" d="M213.73,379.81c-0.01,0.01-0.02,0.03-0.02,0.04C213.72,379.83,213.72,379.82,213.73,379.81
		C213.73,379.8,213.73,379.81,213.73,379.81z"/>
	<path class="st3" d="M196.45,366.55c2.73,2.71,5.35,5.51,7.69,8.58c2.17,2.85,4.07,5.87,5.38,9.23c0.45,1.17,0.55,2.39,0.56,3.62
		c0.04,3.29,0.13,6.58,0.62,9.84c0.03,0.22-0.02,0.45-0.03,0.68c-0.07,0.09-0.13,0.19-0.2,0.28c-0.2-0.33-0.4-0.67-0.6-1
		c-0.03-0.03-0.05-0.06-0.08-0.1c-0.56-0.74-1.17-1.44-1.93-1.99l-0.01-0.01c-0.58-0.75-1.31-1.35-2.01-1.98
		c-0.11-0.14-0.2-0.29-0.39-0.32c-0.11-0.26-0.29-0.44-0.54-0.56c-0.07-0.24-0.23-0.38-0.46-0.44c-0.13-0.29-0.27-0.57-0.59-0.71
		l0,0c-0.13-0.37-0.43-0.58-0.72-0.82c-0.25-0.46-0.62-0.84-0.99-1.2c-0.37-0.54-0.59-1.2-1.26-1.49c0,0-0.01-0.01-0.01-0.01
		c0.12-0.15,0.04-0.29-0.04-0.4c-0.93-1.29-1.75-2.66-2.5-4.06c-0.02-0.04-0.1-0.06-0.15-0.08c0.04-0.2-0.08-0.35-0.16-0.52
		c-0.3-0.63-0.59-1.27-0.89-1.9c-0.54-1.14-0.78-2.39-1.28-3.54c-0.29-1.33-0.62-2.66-0.87-4c-0.49-2.58-0.46-5.15,0.17-7.71
		c0.09-0.38,0.35-0.47,0.57-0.23C195.97,365.99,196.35,366.16,196.45,366.55z"/>
	<path class="st4" d="M195.25,364.74c0,0.21-0.16,0.3-0.27,0.4c-0.13,0.11-0.17,0.38-0.41,0.3c-0.14-0.05-0.09-0.21-0.1-0.33
		c-0.01-0.26,0.16-0.37,0.38-0.42C194.98,364.65,195.12,364.64,195.25,364.74z"/>
	<path class="st4" d="M194.57,372.71c-0.02,0.11-0.07,0.2-0.2,0.17c-0.1-0.02-0.13-0.1-0.09-0.19c0.04-0.09,0.07-0.22,0.2-0.18
		C194.57,372.53,194.58,372.63,194.57,372.71z"/>
	<path class="st5" d="M210.48,398.77c0.07-0.09,0.13-0.19,0.2-0.28c0.01,0.15,0.05,0.31-0.06,0.46
		C210.52,398.92,210.49,398.86,210.48,398.77z"/>
	<path class="st5" d="M215.84,371.5c-0.03,0.03-0.07,0.06-0.11,0.1c-0.03-0.04-0.07-0.09-0.08-0.14c-0.01-0.02,0.03-0.08,0.06-0.09
		C215.79,371.35,215.82,371.4,215.84,371.5z"/>
	<path class="st4" d="M206.74,395.39c-0.03-0.02-0.05-0.04-0.08-0.06c0.03-0.02,0.05-0.05,0.08-0.06c0.01,0,0.04,0.02,0.04,0.03
		C206.77,395.33,206.76,395.36,206.74,395.39z"/>
	<path class="st5" d="M200.33,369.31c-0.1-0.07-0.19-0.15-0.29-0.22C200.23,369.05,200.32,369.13,200.33,369.31z"/>
	<path class="st4" d="M210.04,399.32c-0.03,0.02-0.05,0.04-0.08,0.07c-0.02-0.03-0.04-0.06-0.05-0.09c0-0.01,0.03-0.04,0.04-0.03
		C209.99,399.27,210.01,399.3,210.04,399.32z"/>
	<path class="st5" d="M210.63,399.2c0.02,0.08,0.03,0.17,0.05,0.25C210.5,399.4,210.43,399.33,210.63,399.2z"/>
	<path class="st4" d="M194.58,366.41c0.04-0.06,0.07-0.12,0.11-0.18c0.02,0.02,0.05,0.05,0.07,0.07
		C194.7,366.34,194.64,366.38,194.58,366.41C194.58,366.42,194.58,366.41,194.58,366.41z"/>
	<path class="st4" d="M199.73,387.38c-0.03-0.02-0.05-0.04-0.08-0.06c0.03-0.02,0.05-0.05,0.08-0.06c0.01,0,0.04,0.02,0.04,0.03
		C199.77,387.32,199.75,387.35,199.73,387.38z"/>
	<path class="st5" d="M216.14,378.5c0.1,0.01,0.1,0.09,0.12,0.17c-0.08-0.01-0.2,0.06-0.24-0.08
		C216.01,378.57,216.09,378.53,216.14,378.5z"/>
	<path class="st5" d="M212.85,379.18c-0.01-0.01-0.03-0.02-0.04-0.03C212.83,379.16,212.84,379.17,212.85,379.18
		C212.86,379.18,212.85,379.18,212.85,379.18z"/>
	<polygon class="st2" points="219.27,351.75 219.24,351.76 219.26,351.75 	"/>
</g>
<g>
	<text transform="matrix(1 0 0 1 250.2998 375.0562)" class="st1 st6 st7">COLOMBIA</text>
	<text transform="matrix(1 0 0 1 252.8809 398.5557)" class="st1 st8 st9">IMPORTADORA</text>
</g>
</svg>
